<svg xmlns="http://www.w3.org/2000/svg" width="149" height="55" viewBox="0 0 149 55" fill="none">
    <path fill-rule="evenodd" clip-rule="evenodd" d="M22.588 35.1727C24.6239 37.2077 27.3842 38.3525 30.2634 38.356C33.1426 38.3525 35.9029 37.2077 37.9388 35.1727C39.9747 33.1376 41.12 30.3785 41.1235 27.5005C41.1235 23.8537 39.6742 20.3563 37.0944 17.7776C34.5147 15.1989 31.0157 13.7502 27.3674 13.7502C23.7191 13.7502 20.2202 15.1989 17.6404 17.7776C15.0606 20.3563 13.6113 23.8537 13.6113 27.5005H15.0593C15.0593 24.2376 16.3561 21.1083 18.6643 18.8011C20.9725 16.4938 24.1031 15.1976 27.3674 15.1976C30.6317 15.1976 33.7623 16.4938 36.0705 18.8011C38.3787 21.1083 39.6755 24.2376 39.6755 27.5005C39.6755 29.9957 38.6838 32.3887 36.9187 34.153C35.1536 35.9174 32.7596 36.9086 30.2634 36.9086C27.7672 36.9086 25.3732 35.9174 23.6081 34.153C21.843 32.3887 20.8514 29.9957 20.8514 27.5005C20.8514 25.7731 21.5379 24.1164 22.7599 22.8949C23.9819 21.6734 25.6392 20.9872 27.3674 20.9872C29.0956 20.9872 30.7529 21.6734 31.9749 22.8949C33.1969 24.1164 33.8834 25.7731 33.8834 27.5005H35.3314C35.3314 25.3892 34.4924 23.3644 32.9988 21.8715C31.5053 20.3785 29.4796 19.5398 27.3674 19.5398C25.2552 19.5398 23.2295 20.3785 21.736 21.8715C20.2424 23.3644 19.4034 25.3892 19.4034 27.5005C19.4068 30.3785 20.5521 33.1376 22.588 35.1727ZM20.5411 37.2187C23.1199 39.7965 26.6164 41.2465 30.2634 41.2508C33.9105 41.2465 37.4069 39.7965 39.9858 37.2187C42.5646 34.641 44.0153 31.146 44.0195 27.5005H42.5715C42.5715 30.7634 41.2747 33.8927 38.9665 36.1999C36.6583 38.5072 33.5277 39.8034 30.2634 39.8034C26.9991 39.8034 23.8685 38.5072 21.5603 36.1999C19.2521 33.8927 17.9554 30.7634 17.9554 27.5005C17.9554 25.0053 18.947 22.6123 20.7121 20.848C22.4772 19.0836 24.8712 18.0924 27.3674 18.0924C29.8636 18.0924 32.2576 19.0836 34.0227 20.848C35.7878 22.6123 36.7795 25.0053 36.7795 27.5005C36.7795 29.2279 36.0929 30.8846 34.871 32.1061C33.649 33.3276 31.9916 34.0138 30.2634 34.0138C28.5353 34.0138 26.8779 33.3276 25.6559 32.1061C24.4339 30.8846 23.7474 29.2279 23.7474 27.5005H22.2994C22.2994 29.6118 23.1384 31.6366 24.632 33.1295C26.1255 34.6225 28.1512 35.4612 30.2634 35.4612C32.3756 35.4612 34.4013 34.6225 35.8948 33.1295C37.3884 31.6366 38.2275 29.6118 38.2275 27.5005C38.2275 24.6215 37.0833 21.8603 35.0466 19.8245C33.01 17.7887 30.2477 16.645 27.3674 16.645C24.4871 16.645 21.7248 17.7887 19.6882 19.8245C17.6515 21.8603 16.5073 24.6215 16.5073 27.5005C16.5116 31.146 17.9622 34.641 20.5411 37.2187Z" fill="#49F0AC"/>
    <path fill-rule="evenodd" clip-rule="evenodd" d="M50.8252 25.3294C50.8252 20.0073 54.9897 16.066 60.6717 16.066C66.3276 16.066 70.5181 19.9812 70.5181 25.3294C70.5181 30.6775 66.3276 34.5927 60.6717 34.5927C54.9897 34.5927 50.8252 30.6515 50.8252 25.3294ZM66.3015 25.3294C66.3015 21.9265 63.8848 19.5977 60.6717 19.5977C57.4585 19.5977 55.0418 21.9265 55.0418 25.3294C55.0418 28.7322 57.4585 31.0611 60.6717 31.0611C63.8848 31.0611 66.3015 28.7322 66.3015 25.3294ZM84.9982 33.1873L86.3014 30.2505C87.5438 31.0524 89.5174 31.6979 91.2246 31.6979C93.0868 31.6979 93.6862 31.1711 93.6862 30.3953C93.6862 29.5076 92.386 29.2998 90.8001 29.0462C88.3207 28.6499 85.143 28.1419 85.143 24.7504C85.143 22.1118 87.7494 20.2635 91.8038 20.2635C93.7181 20.2635 95.8423 20.7903 97.1615 21.5661L95.8582 24.4609C94.487 23.6851 93.0708 23.303 91.8038 23.303C89.9938 23.303 89.1974 24.0267 89.1974 24.7504C89.1974 25.6954 90.5221 25.8926 92.1192 26.1303C94.5436 26.491 97.5959 26.9453 97.5959 30.2505C97.5959 32.837 95.0995 34.7375 90.935 34.7375C88.5806 34.7375 86.2913 34.0413 84.9982 33.1873ZM105.415 34.8822C106.649 34.8822 107.923 34.4668 108.745 33.869L107.587 30.9742C107.15 31.3115 106.547 31.6169 105.957 31.6169C104.876 31.6169 104.257 30.8671 104.257 29.6716V24.0267H107.008V20.9872H104.257V17.5134H100.202V20.9872H98.175V24.0267H100.202V29.6716C100.202 33.0006 102.151 34.8822 105.415 34.8822ZM123.004 28.6381H112.51C112.897 30.375 114.367 31.4316 116.482 31.4316C117.952 31.4316 119.089 31.0104 120.044 30.1058L122.216 32.4216C120.926 33.8965 118.926 34.7375 116.424 34.7375C111.627 34.7375 108.46 31.6386 108.46 27.5005C108.46 23.3363 111.615 20.2635 115.845 20.2635C119.92 20.2635 123.085 23.0251 123.085 27.5005C123.082 27.7157 123.056 28.019 123.032 28.2967L123.032 28.297V28.2972C123.022 28.419 123.012 28.5358 123.004 28.6381ZM112.454 26.2847H119.29C119 24.5261 117.69 23.3899 115.884 23.3899C114.052 23.3884 112.738 24.5 112.454 26.2847ZM132.927 24.0267V20.2635C130.804 20.2635 129.12 21.0972 128.149 22.4346V20.553H124.384V34.448H128.294V27.7899C128.294 25.1456 129.833 23.9876 132.032 23.9876C132.339 23.9876 132.594 24.0007 132.927 24.0267ZM130.61 32.109C130.61 30.7238 131.637 29.8163 132.927 29.8163C134.217 29.8163 135.244 30.7238 135.244 32.109C135.244 32.7232 135 33.3122 134.565 33.7465C134.131 34.1808 133.542 34.4248 132.927 34.4248C132.313 34.4248 131.724 34.1808 131.289 33.7465C130.855 33.3122 130.61 32.7232 130.61 32.109ZM78.1694 29.3821L81.8314 20.4082H85.7222L79.6348 34.8257C78.2867 38.2069 76.494 39.22 73.9774 39.22C72.5511 39.22 70.8424 38.7236 69.9345 37.9174L71.3826 35.1673C72.0052 35.713 72.9218 35.9431 73.7254 35.9431C74.8404 35.9431 75.463 35.4539 76.0075 34.2063L76.0596 34.076L70.2676 20.4082H74.4509L78.1694 29.3821Z" fill="#014651"/>
</svg>