<svg xmlns="http://www.w3.org/2000/svg" width="168" height="35" fill="none"><path d="M21.434 30.38c-7.882 0-13.192-6.743-13.192-13.043 0-2.635.927-5.058 2.613-6.828 1.75-1.833 4.215-2.845 6.912-2.845a9.416 9.416 0 0 1 6.87 2.93c1.727 1.79 2.697 4.172 2.697 6.532H25.48c0-3.667-3.098-7.607-7.713-7.607-4.446 0-7.67 3.287-7.67 7.818 0 4.678 3.94 11.168 11.316 11.168 7.838 0 11.484-6.828 11.484-11.463 0-3.435-1.496-7.165-3.983-9.989-2.023-2.297-5.584-5.015-11.105-5.015-9.356 0-15.172 7.839-15.172 15.088H.783C.803 8.992 7.315.184 17.83.184c11.063 0 16.963 9.798 16.963 16.878-.02 5.374-4.256 13.318-13.36 13.318z" fill="#fff"/><path d="M21.497 34.047c-11.063 0-16.963-9.798-16.963-16.879 0-5.373 4.235-13.317 13.36-13.317 7.88 0 13.19 6.743 13.19 13.043 0 2.634-.926 5.058-2.612 6.828-1.75 1.833-4.215 2.845-6.912 2.845a9.417 9.417 0 0 1-6.87-2.93c-1.727-1.79-2.697-4.172-2.697-6.532h1.855c0 3.667 3.097 7.607 7.712 7.607 4.446 0 7.67-3.287 7.67-7.818 0-4.678-3.94-11.168-11.315-11.168-7.86-.021-11.506 6.827-11.506 11.442 0 3.435 1.496 7.165 3.983 9.989 2.023 2.296 5.584 5.015 11.105 5.015 9.356 0 15.172-7.84 15.172-15.088h1.854c0 8.176-6.511 16.963-17.026 16.963zM56.483 25.6c-2.018-1.05-3.623-2.503-4.813-4.406-1.139-1.853-1.708-3.956-1.708-6.26s.57-4.407 1.708-6.26c1.139-1.853 2.743-3.306 4.813-4.407 2.019-1.052 4.348-1.603 6.884-1.603 2.536 0 4.814.55 6.832 1.603 2.019 1.051 3.623 2.504 4.814 4.407 1.19 1.903 1.76 3.956 1.76 6.26s-.57 4.407-1.76 6.26c-1.19 1.853-2.744 3.305-4.814 4.407-2.018 1.052-4.296 1.602-6.832 1.602-2.536 0-4.865-.55-6.884-1.602zm10.766-4.056c1.19-.65 2.07-1.552 2.743-2.704.673-1.152.983-2.454.983-3.906 0-1.453-.31-2.755-.983-3.906a7.363 7.363 0 0 0-2.743-2.705c-1.19-.65-2.484-.951-3.934-.951-1.449 0-2.743.3-3.933.951s-2.07 1.553-2.743 2.704c-.673 1.152-.984 2.454-.984 3.907 0 1.452.31 2.754.984 3.906a7.363 7.363 0 0 0 2.743 2.704c1.19.651 2.484.952 3.933.952 1.501 0 2.795-.3 3.934-.952z" fill="#fff"/><path d="M98.097 8.574l-8.489 19.33c-.88 2.104-1.915 3.556-3.209 4.458-1.294.851-2.794 1.302-4.606 1.302-.984 0-1.967-.15-2.899-.45-.931-.301-1.76-.702-2.329-1.203l2.019-3.756c.414.35.88.651 1.45.852.569.2 1.086.3 1.604.3.724 0 1.345-.15 1.811-.5.466-.351.88-.952 1.242-1.754l.052-.15-8.126-18.33h5.642l5.279 12.22 5.331-12.37h5.228v.05zm2.587 17.878c-1.5-.35-2.691-.851-3.571-1.402l1.811-3.806c.829.5 1.864.951 3.054 1.252 1.191.35 2.329.5 3.52.5 2.329 0 3.467-.55 3.467-1.652 0-.501-.31-.902-.931-1.102-.621-.2-1.605-.4-2.899-.55a25.007 25.007 0 0 1-3.83-.802c-.983-.3-1.863-.802-2.588-1.553-.724-.75-1.086-1.803-1.086-3.205 0-1.152.362-2.153 1.035-3.055.673-.901 1.708-1.602 3.002-2.103 1.294-.5 2.898-.751 4.658-.751 1.346 0 2.639.15 3.985.4 1.294.3 2.433.651 3.261 1.152l-1.812 3.756c-1.656-.901-3.467-1.352-5.434-1.352-1.191 0-2.019.15-2.64.45-.569.301-.88.702-.88 1.203 0 .55.311.951.932 1.202.621.25 1.656.45 3.002.65 1.553.251 2.795.502 3.778.802a5.76 5.76 0 0 1 2.536 1.552c.725.752 1.087 1.803 1.087 3.105a4.723 4.723 0 0 1-1.035 3.005c-.725.902-1.708 1.553-3.054 2.054-1.345.5-2.95.75-4.761.75-1.605.1-3.106-.1-4.607-.5zm28.001-.55c-.517.4-1.19.65-1.967.851-.776.2-1.604.3-2.484.3-2.226 0-3.985-.55-5.176-1.652-1.242-1.102-1.811-2.755-1.811-4.858v-7.462h-2.899V9.025h2.899V4.567h5.434v4.458h4.71v4.056h-4.71v7.412c0 .751.207 1.352.621 1.753.414.4.984.6 1.708.6.88 0 1.605-.2 2.226-.7l1.449 3.756zm19.72-6.762h-14.233c.258 1.153.879 2.004 1.811 2.655.932.651 2.122 1.002 3.571 1.002.984 0 1.864-.15 2.588-.4.777-.301 1.449-.752 2.122-1.353l2.899 3.055c-1.76 1.953-4.348 2.955-7.764 2.955-2.122 0-3.985-.401-5.641-1.202-1.657-.802-2.899-1.903-3.779-3.356-.88-1.402-1.345-3.055-1.345-4.857 0-1.803.414-3.406 1.293-4.808.88-1.453 2.071-2.554 3.624-3.356 1.552-.8 3.26-1.202 5.124-1.202 1.863 0 3.519.401 5.02 1.152 1.501.752 2.64 1.853 3.519 3.306.829 1.452 1.294 3.105 1.294 5.008 0 .05 0 .55-.103 1.402zm-12.732-5.859c-.829.702-1.346 1.603-1.553 2.755h9.264c-.207-1.152-.724-2.053-1.552-2.755-.828-.7-1.864-1.051-3.054-1.051-1.242.05-2.277.4-3.105 1.051zm22.876-4.306c1.087-.451 2.381-.702 3.83-.702v4.858c-.621-.05-1.035-.05-1.242-.05-1.553 0-2.795.4-3.675 1.252-.88.851-1.345 2.104-1.345 3.806v8.614h-5.435V8.523h5.228v2.405c.621-.852 1.501-1.503 2.639-1.953zm3.313 17.127c-.673-.65-.984-1.402-.984-2.354 0-.951.311-1.752.984-2.353.672-.601 1.449-.902 2.432-.902.932 0 1.76.3 2.433.902.673.6.983 1.402.983 2.353 0 .952-.31 1.753-.983 2.354-.673.651-1.449.952-2.433.952-.983 0-1.76-.35-2.432-.952z" fill="#fff"/></svg>